<svg xmlns="http://www.w3.org/2000/svg" viewBox="0 0 256 128">
  <defs>
    <style>
      .cls-1{fill:#1a2332;}
      .cls-2{fill:#4a7fff;}
      .cls-3{fill:#ffffff;}
      .cls-4{fill:#7da4ff;}
    </style>
  </defs>
  <!-- Background (dark mode - darker background, centered icon) -->
  <rect class="cls-1" x="64" y="0" width="128" height="128" rx="64"/>
  
  <!-- Wave bottom (bright blue for dark mode) -->
  <path class="cls-2" d="M184,94.6A64,64,0,0,1,66.96,84l1.6-0.28A53.36,53.36,0,0,1,88,84.84a88.8,88.8,0,0,1,13.72,4c10.52,4,14.48,7.12,24.68,8.36,20.56,2.48,32.96-6,53.44-3.52C181.78,94,182.64,94.32,184,94.6Z"/>
  
  <!-- H letter (white) -->
  <polygon class="cls-3" points="142.12 57.36 113.88 57.36 113.88 26.12 98.6 26.12 98.6 101.88 113.88 101.88 113.88 71.08 142.12 71.08 142.12 101.88 157.4 101.88 157.4 26.12 142.12 26.12 142.12 57.36"/>
  
  <!-- Wave top (lighter blue for dark mode) -->
  <path class="cls-4" d="M72,94.6A64,64,0,0,0,188.84,84l-1.6-0.28a53.32,53.32,0,0,0-19.48,1.28,88.8,88.8,0,0,0-13.72,4c-10.52,4-14.48,7.12-24.68,8.36C108.8,100,98.4,91.36,76,93.84,74.52,94,73.16,94.32,72,94.6Z"/>
</svg>
