<svg xmlns="http://www.w3.org/2000/svg" viewBox="0 0 256 256">
  <defs>
    <style>
      .cls-1{fill:#05134d;}
      .cls-2{fill:#033cbd;}
      .cls-3{fill:#fff;}
      .cls-4{fill:#2d6dff;}
    </style>
  </defs>
  <!-- Background circle (light mode - dark navy) -->
  <circle class="cls-1" cx="128" cy="128" r="128"/>
  
  <!-- Wave bottom (dark blue) -->
  <path class="cls-2" d="M240,189.2A128,128,0,0,1,5.92,168l3.2-0.56A106.72,106.72,0,0,1,48,169.68a177.6,177.6,0,0,1,27.44,8c21.04,8,28.96,14.24,49.36,16.72,41.12,4.96,65.92-12,106.88-7.04C235.56,188,237.28,188.64,240,189.2Z"/>
  
  <!-- H letter (white) -->
  <polygon class="cls-3" points="156.24 114.72 99.76 114.72 99.76 52.24 69.2 52.24 69.2 203.76 99.76 203.76 99.76 142.16 156.24 142.16 156.24 203.76 186.8 203.76 186.8 52.24 156.24 52.24 156.24 114.72"/>
  
  <!-- Wave top (light blue) -->
  <path class="cls-4" d="M16,189.2A128,128,0,0,0,249.68,168l-3.2-0.56a106.64,106.64,0,0,0-38.96,2.56,177.6,177.6,0,0,0-27.44,8c-21.04,8-28.96,14.24-49.36,16.72C89.6,200,68.8,182.72,24,187.68,21.04,188,18.32,188.64,16,189.2Z"/>
</svg>
