<svg id="Favicon" xmlns="http://www.w3.org/2000/svg" viewBox="0 0 32 32"><defs><style>.cls-1{fill:#05134d;}.cls-2{fill:#033cbd;}.cls-3{fill:#fff;}.cls-4{fill:#2d6dff;}</style></defs><circle class="cls-1" cx="16" cy="16" r="16"/><path class="cls-2" d="M30,23.65A16,16,0,0,1,.74,21l.4-.07A13.34,13.34,0,0,1,6,21.21a22.2,22.2,0,0,1,3.43,1c2.63,1,3.62,1.78,6.17,2.09,5.14.62,8.24-1.5,13.36-.88C29.32,23.5,29.66,23.58,30,23.65Z"/><polygon class="cls-3" points="19.53 14.34 12.47 14.34 12.47 6.53 8.65 6.53 8.65 25.47 12.47 25.47 12.47 17.77 19.53 17.77 19.53 25.47 23.35 25.47 23.35 6.53 19.53 6.53 19.53 14.34"/><path class="cls-4" d="M2,23.65A16,16,0,0,0,31.21,21l-.4-.07a13.33,13.33,0,0,0-4.87.32,22.2,22.2,0,0,0-3.43,1c-2.63,1-3.62,1.78-6.17,2.09C11.2,25,8.1,22.84,3,23.46,2.63,23.5,2.29,23.58,2,23.65Z"/></svg>